Coordinates
version=1
nRows=21
nColumns=22
inDegrees=yes

Units are S.I. units (second, meters, Newtons, ...)
If the header above contains a line with 'inDegrees', this indicates whether rotational values are in degrees (yes) or radians (no).

endheader
time	pelvis_tilt	pelvis_list	pelvis_rotation	pelvis_tx	pelvis_ty	pelvis_tz	hip_flexion_r	hip_adduction_r	hip_rotation_r	knee_angle_r	ankle_angle_r	subtalar_angle_r	hip_flexion_l	hip_adduction_l	hip_rotation_l	knee_angle_l	ankle_angle_l	subtalar_angle_l	lumbar_extension	lumbar_bending	lumbar_rotation
      0.01000000	     -0.43088519	      0.61880218	    -32.38117374	     -0.96593850	      0.90388701	     -0.39611513	     -4.52119456	      0.89194582	     -3.84056824	     -0.59514228	     14.89092905	      0.97718429	      0.17449544	     -1.20797525	    -11.32492948	    -11.95360244	     16.06248475	     -0.35547175	     -2.73059979	     -1.85745177	      4.32825716
      0.02000000	     -0.43310263	      0.62164880	    -32.38062684	     -0.96589857	      0.90387193	     -0.39606115	     -4.52220810	      0.89229483	     -3.84058257	     -0.59553173	     14.89131922	      0.97704185	      0.17366614	     -1.20808141	    -11.32510120	    -11.95410030	     16.06205715	     -0.35569436	     -2.73171733	     -1.85701246	      4.32824651
      0.03000000	     -0.43570787	      0.62851265	    -32.36566553	     -0.96581173	      0.90384797	     -0.39599827	     -4.53893641	      0.89151299	     -3.85460217	     -0.56860133	     14.92697324	      0.96445567	      0.17218522	     -1.20607397	    -11.33501961	    -11.94939058	     16.03450448	     -0.37304496	     -2.72377181	     -1.86186243	      4.31964250
      0.04000000	     -0.43675963	      0.63199100	    -32.36006561	     -0.96573543	      0.90383188	     -0.39593893	     -4.54294972	      0.88967399	     -3.85381275	     -0.57081588	     14.92753103	      0.96293914	      0.16876288	     -1.20463637	    -11.33417858	    -11.94986415	     16.03420885	     -0.37440974	     -2.72234818	     -1.86025485	      4.32004371
      0.05000000	     -0.42943907	      0.63946084	    -32.34517188	     -0.96562119	      0.90381951	     -0.39586332	     -4.57269942	      0.88207237	     -3.86862478	     -0.53970864	     14.94702860	      0.94082553	      0.14505013	     -1.19125613	    -11.31220324	    -11.92308052	     16.03779835	     -0.39292762	     -2.72205643	     -1.87145281	      4.30939253
      0.06000000	     -0.43075598	      0.64202212	    -32.33849452	     -0.96552765	      0.90380345	     -0.39579349	     -4.57777884	      0.88132195	     -3.86671536	     -0.54352307	     14.94662736	      0.93968683	      0.14039420	     -1.19128506	    -11.31120616	    -11.92433720	     16.03769193	     -0.39389323	     -2.72060799	     -1.87098208	      4.31032519
      0.07000000	     -0.43243896	      0.64433634	    -32.33126422	     -0.96542705	      0.90378692	     -0.39571632	     -4.58417571	      0.88158038	     -3.86552105	     -0.54550158	     14.94739597	      0.93852657	      0.13503015	     -1.19178671	    -11.31013498	    -11.92462347	     16.03824091	     -0.39481525	     -2.71823182	     -1.87210140	      4.31134021
      0.08000000	     -0.43424773	      0.64636687	    -32.32318775	     -0.96531125	      0.90376956	     -0.39563210	     -4.59295434	      0.88219170	     -3.86497770	     -0.54609811	     14.94944293	      0.93719297	      0.12847077	     -1.19269808	    -11.30855890	    -11.92491731	     16.03955646	     -0.39575239	     -2.71447762	     -1.87422829	      4.31268293
      0.09000000	     -0.39569421	      0.63059520	    -32.29645400	     -0.96514138	      0.90380853	     -0.39555298	     -4.68147143	      0.87860952	     -3.88295764	     -0.49358422	     14.97005686	      0.89818971	      0.06018856	     -1.18115707	    -11.26148638	    -11.89846066	     16.06810457	     -0.41664902	     -2.76223970	     -1.88496021	      4.28599027
      0.10000000	     -0.39900804	      0.63248388	    -32.28993570	     -0.96501079	      0.90378987	     -0.39546507	     -4.68811072	      0.87942637	     -3.88246654	     -0.49712851	     14.97003553	      0.89751166	      0.05497635	     -1.18272095	    -11.26194654	    -11.90086780	     16.06733057	     -0.41715680	     -2.75712139	     -1.88668495	      4.28982833
      0.11000000	     -0.40264005	      0.63427181	    -32.28180247	     -0.96487576	      0.90377025	     -0.39537226	     -4.69594792	      0.88145395	     -3.88268277	     -0.49909205	     14.97122496	      0.89674827	      0.04986619	     -1.18488869	    -11.26202779	    -11.90325077	     16.06737024	     -0.41754852	     -2.75223372	     -1.89011688	      4.29492938
      0.12000000	     -0.40568712	      0.63390809	    -32.26865748	     -0.96473314	      0.90374857	     -0.39527374	     -4.71772960	      0.88752194	     -3.89762297	     -0.47847458	     14.98311388	      0.89163402	      0.04338480	     -1.18965490	    -11.25678675	    -11.90570413	     16.07310732	     -0.41835371	     -2.75075656	     -1.89543539	      4.31654375
      0.13000000	     -0.40865026	      0.63641870	    -32.26043580	     -0.96458692	      0.90372750	     -0.39518459	     -4.72526142	      0.88780321	     -3.89657643	     -0.48190008	     14.98382937	      0.89090595	      0.03739310	     -1.18976788	    -11.25628195	    -11.90859400	     16.07431399	     -0.41834221	     -2.74608046	     -1.89591719	      4.31840301
      0.14000000	     -0.41218125	      0.63921985	    -32.24828547	     -0.96444298	      0.90370478	     -0.39509344	     -4.73389405	      0.88933271	     -3.89676456	     -0.48298408	     14.98589950	      0.88999701	      0.03205770	     -1.19090862	    -11.25551358	    -11.90951744	     16.07654809	     -0.41819443	     -2.74201606	     -1.89837301	      4.32290340
      0.15000000	     -0.39632691	      0.63349556	    -32.21770430	     -0.96425576	      0.90370326	     -0.39500861	     -4.79210753	      0.89098235	     -3.92916109	     -0.43911329	     15.00714436	      0.86382698	     -0.00713774	     -1.18483512	    -11.21214197	    -11.88952291	     16.11612608	     -0.41309411	     -2.76118296	     -1.90453940	      4.31524062
      0.16000000	     -0.40053614	      0.63733702	    -32.20615197	     -0.96411188	      0.90367902	     -0.39492058	     -4.79810421	      0.89191172	     -3.92852499	     -0.44222211	     15.00748765	      0.86316145	     -0.01268510	     -1.18480887	    -11.21344347	    -11.88936745	     16.11555737	     -0.41323828	     -2.75679893	     -1.90447899	      4.32042478
      0.17000000	     -0.40789902	      0.64263092	    -32.19391070	     -0.96394237	      0.90364833	     -0.39481117	     -4.81443464	      0.89539242	     -3.94742072	     -0.42166184	     15.01799274	      0.85639911	     -0.02841523	     -1.18385990	    -11.21017750	    -11.86544012	     16.11668115	     -0.41291606	     -2.74278071	     -1.90691517	      4.34557001
      0.18000000	     -0.41203685	      0.64720010	    -32.18070158	     -0.96379050	      0.90362314	     -0.39472955	     -4.82105926	      0.89460853	     -3.94575875	     -0.42530820	     15.01905614	      0.85545246	     -0.03515400	     -1.18258980	    -11.21091369	    -11.86290986	     16.11725936	     -0.41282424	     -2.73839420	     -1.90628863	      4.34979715
      0.19000000	     -0.41702541	      0.65603220	    -32.17034635	     -0.96360562	      0.90359238	     -0.39461994	     -4.83926034	      0.89237606	     -3.96296687	     -0.40231150	     15.03624775	      0.84550130	     -0.06181356	     -1.17353383	    -11.20024367	    -11.82114786	     16.12481454	     -0.41099535	     -2.72223695	     -1.91176967	      4.37010094
      0.20000000	     -0.42109371	      0.66044778	    -32.15685190	     -0.96345656	      0.90356836	     -0.39454746	     -4.84492413	      0.89097990	     -3.96052770	     -0.40661917	     15.03702080	      0.84452737	     -0.06780915	     -1.17188266	    -11.20054268	    -11.81915863	     16.12511079	     -0.41092063	     -2.71994506	     -1.91129740	      4.37388620
      0.21000000	     -0.42495491	      0.67034486	    -32.14360535	     -0.96328144	      0.90353986	     -0.39445277	     -4.86069266	      0.88643358	     -3.97677990	     -0.38835804	     15.05353131	      0.83277251	     -0.09069683	     -1.16094987	    -11.18301068	    -11.78112395	     16.13145651	     -0.40918729	     -2.70798937	     -1.92025312	      4.39154289
